<svg width="174" height="21" viewBox="0 0 174 21" fill="none" xmlns="http://www.w3.org/2000/svg">
<path d="M7 20V2.192H0.112V0.399999H15.96V2.192H9.072V20H7ZM19.2701 20V0.399999H26.6061C28.2675 0.399999 29.6955 0.670666 30.8901 1.212C32.0848 1.73467 32.9995 2.5 33.6341 3.508C34.2875 4.49733 34.6141 5.70133 34.6141 7.12C34.6141 8.50133 34.2875 9.696 33.6341 10.704C32.9995 11.6933 32.0848 12.4587 30.8901 13C29.6955 13.5227 28.2675 13.784 26.6061 13.784H20.4181L21.3421 12.832V20H19.2701ZM32.6541 20L27.6141 12.888H29.8541L34.9221 20H32.6541ZM21.3421 13L20.4181 12.02H26.5501C28.5101 12.02 29.9941 11.5907 31.0021 10.732C32.0288 9.87333 32.5421 8.66933 32.5421 7.12C32.5421 5.552 32.0288 4.33867 31.0021 3.48C29.9941 2.62133 28.5101 2.192 26.5501 2.192H20.4181L21.3421 1.212V13ZM36.3685 20L45.3285 0.399999H47.3725L56.3325 20H54.1485L45.9165 1.604H46.7565L38.5245 20H36.3685ZM39.8965 14.764L40.5125 13.084H51.9085L52.5245 14.764H39.8965ZM62.3984 20V2.192H55.5104V0.399999H71.3584V2.192H64.4704V20H62.3984ZM82.9631 20.168C81.4885 20.168 80.1165 19.9253 78.8471 19.44C77.5965 18.936 76.5045 18.236 75.5711 17.34C74.6565 16.4253 73.9378 15.3707 73.4151 14.176C72.9111 12.9627 72.6591 11.6373 72.6591 10.2C72.6591 8.76267 72.9111 7.44667 73.4151 6.252C73.9378 5.03867 74.6565 3.984 75.5711 3.088C76.5045 2.17333 77.5965 1.47333 78.8471 0.987999C80.0978 0.483999 81.4698 0.231999 82.9631 0.231999C84.4378 0.231999 85.8005 0.483999 87.0511 0.987999C88.3018 1.47333 89.3845 2.164 90.2991 3.06C91.2325 3.956 91.9511 5.01067 92.4551 6.224C92.9778 7.43733 93.2391 8.76267 93.2391 10.2C93.2391 11.6373 92.9778 12.9627 92.4551 14.176C91.9511 15.3893 91.2325 16.444 90.2991 17.34C89.3845 18.236 88.3018 18.936 87.0511 19.44C85.8005 19.9253 84.4378 20.168 82.9631 20.168ZM82.9631 18.32C84.1391 18.32 85.2218 18.124 86.2111 17.732C87.2191 17.3213 88.0871 16.752 88.8151 16.024C89.5618 15.2773 90.1405 14.4187 90.5511 13.448C90.9618 12.4587 91.1671 11.376 91.1671 10.2C91.1671 9.024 90.9618 7.95067 90.5511 6.98C90.1405 5.99067 89.5618 5.132 88.8151 4.404C88.0871 3.65733 87.2191 3.088 86.2111 2.696C85.2218 2.28533 84.1391 2.08 82.9631 2.08C81.7871 2.08 80.6951 2.28533 79.6871 2.696C78.6791 3.088 77.8018 3.65733 77.0551 4.404C76.3271 5.132 75.7485 5.99067 75.3191 6.98C74.9085 7.95067 74.7031 9.024 74.7031 10.2C74.7031 11.3573 74.9085 12.4307 75.3191 13.42C75.7485 14.4093 76.3271 15.2773 77.0551 16.024C77.8018 16.752 78.6791 17.3213 79.6871 17.732C80.6951 18.124 81.7871 18.32 82.9631 18.32ZM99.8154 20L103.119 3.48H96.6234L97.2394 0.399999H113.843L113.227 3.48H106.731L103.455 20H99.8154ZM118.311 8.548H128.083L127.495 11.544H117.723L118.311 8.548ZM116.911 16.948H127.999L127.383 20H112.683L116.603 0.399999H130.911L130.295 3.452H119.599L116.911 16.948ZM141.381 20.28C139.384 20.28 137.676 19.9253 136.257 19.216C134.838 18.5067 133.746 17.5267 132.981 16.276C132.234 15.0067 131.861 13.5507 131.861 11.908C131.861 10.2467 132.141 8.70667 132.701 7.288C133.28 5.85067 134.101 4.6 135.165 3.536C136.229 2.472 137.498 1.64133 138.973 1.044C140.448 0.427999 142.1 0.119999 143.929 0.119999C145.628 0.119999 147.121 0.399999 148.409 0.96C149.697 1.52 150.686 2.332 151.377 3.396L148.745 5.608C148.204 4.86133 147.513 4.292 146.673 3.9C145.833 3.508 144.834 3.312 143.677 3.312C142.426 3.312 141.297 3.52667 140.289 3.956C139.281 4.38533 138.422 4.992 137.713 5.776C137.004 6.54133 136.462 7.43733 136.089 8.464C135.716 9.472 135.529 10.5453 135.529 11.684C135.529 12.748 135.762 13.6907 136.229 14.512C136.696 15.3333 137.386 15.968 138.301 16.416C139.216 16.864 140.336 17.088 141.661 17.088C142.762 17.088 143.78 16.9013 144.713 16.528C145.665 16.1547 146.505 15.5853 147.233 14.82L149.361 17.116C148.409 18.1987 147.242 19.0013 145.861 19.524C144.498 20.028 143.005 20.28 141.381 20.28ZM169.481 0.399999H173.093L169.173 20H165.561L169.481 0.399999ZM155.425 20H151.785L155.705 0.399999H159.345L155.425 20ZM167.521 11.6H156.853L157.441 8.492H168.165L167.521 11.6Z" fill="white"/>
</svg>
